<svg width="30" height="26" viewBox="0 0 30 26" fill="none" xmlns="http://www.w3.org/2000/svg">
<path d="M10.6666 7C10.6666 9.48528 12.6813 11.5 15.1666 11.5C17.6519 11.5 19.6666 9.48528 19.6666 7M1.66663 20.2003V5.80029C1.66663 4.12014 1.66663 3.27943 1.99361 2.6377C2.28123 2.07321 2.73984 1.6146 3.30432 1.32698C3.94606 1 4.78676 1 6.46692 1H23.8669C25.5471 1 26.386 1 27.0277 1.32698C27.5922 1.6146 28.0523 2.07321 28.34 2.6377C28.6666 3.2788 28.6666 4.11849 28.6666 5.79537V20.2054C28.6666 21.8822 28.6666 22.7207 28.34 23.3618C28.0523 23.9263 27.5922 24.3857 27.0277 24.6733C26.3866 25 25.5481 25 23.8713 25H6.46199C4.78512 25 3.94543 25 3.30432 24.6733C2.73984 24.3857 2.28123 23.9263 1.99361 23.3618C1.66663 22.7201 1.66663 21.8805 1.66663 20.2003Z" stroke="#9E9E9E" stroke-width="2" stroke-linecap="round" stroke-linejoin="round"/>
</svg>
