<svg width="25" height="26" viewBox="0 0 25 26" fill="none" xmlns="http://www.w3.org/2000/svg">
<path d="M16.7919 19.6667V21C16.7919 23.2091 14.945 25 12.6668 25C10.3886 25 8.54175 23.2091 8.54175 21V19.6667M16.7919 19.6667H8.54175M16.7919 19.6667H21.7289C22.2549 19.6667 22.5191 19.6667 22.7321 19.597C23.1389 19.4639 23.4573 19.1542 23.5945 18.7597C23.6666 18.5524 23.6666 18.2953 23.6666 17.7813C23.6666 17.5563 23.6664 17.4438 23.6482 17.3366C23.6139 17.1339 23.5328 16.9418 23.4093 16.775C23.344 16.6868 23.261 16.6064 23.0975 16.4478L22.5619 15.9284C22.3891 15.7608 22.292 15.5335 22.292 15.2965V10.3333C22.292 5.17867 17.9827 0.999987 12.6668 1C7.35099 1.00001 3.04165 5.17869 3.04165 10.3333V15.2966C3.04165 15.5336 2.94436 15.7608 2.77155 15.9284L2.23597 16.4477C2.07193 16.6068 1.98981 16.6867 1.92444 16.775C1.8009 16.9418 1.71908 17.1339 1.68478 17.3366C1.66663 17.4438 1.66663 17.5563 1.66663 17.7813C1.66663 18.2953 1.66663 18.5523 1.73875 18.7597C1.87597 19.1541 2.19573 19.4639 2.60256 19.597C2.81554 19.6667 3.0788 19.6667 3.6048 19.6667H8.54175" stroke="#9E9E9E" stroke-opacity="0.84" stroke-width="2" stroke-linecap="round" stroke-linejoin="round"/>
</svg>
