<svg width="20" height="20" viewBox="0 0 20 20" fill="none" xmlns="http://www.w3.org/2000/svg">
<path d="M14.0003 7L8.66699 13L6 10M1 15.8002V4.2002C1 3.08009 1 2.51962 1.21799 2.0918C1.40973 1.71547 1.71547 1.40973 2.0918 1.21799C2.51962 1 3.08009 1 4.2002 1H15.8002C16.9203 1 17.4796 1 17.9074 1.21799C18.2837 1.40973 18.5905 1.71547 18.7822 2.0918C19 2.5192 19 3.07899 19 4.19691V15.8036C19 16.9215 19 17.4805 18.7822 17.9079C18.5905 18.2842 18.2837 18.5905 17.9074 18.7822C17.48 19 16.921 19 15.8031 19H4.19691C3.07899 19 2.5192 19 2.0918 18.7822C1.71547 18.5905 1.40973 18.2842 1.21799 17.9079C1 17.4801 1 16.9203 1 15.8002Z" stroke="black" stroke-width="2" stroke-linecap="round" stroke-linejoin="round"/>
</svg>
