<svg width="28" height="28" viewBox="0 0 28 28" fill="none" xmlns="http://www.w3.org/2000/svg">
<path d="M26.6667 22.288V13.5748C26.6667 12.7356 26.6659 12.3158 26.5617 11.9253C26.4693 11.5793 26.3177 11.2518 26.1125 10.9559C25.881 10.6219 25.5591 10.345 24.914 9.79239L17.214 3.19619C16.0163 2.17019 15.4175 1.65745 14.7435 1.46232C14.1497 1.29039 13.5167 1.29039 12.9228 1.46232C12.2494 1.6573 11.6514 2.16956 10.4555 3.19401L2.75299 9.79239C2.1079 10.345 1.78611 10.6219 1.55457 10.9559C1.34937 11.2518 1.19659 11.5793 1.10422 11.9253C1 12.3158 1 12.7356 1 13.5748V22.288C1 23.7515 1 24.483 1.24422 25.0603C1.56985 25.8299 2.19401 26.4421 2.98014 26.7609C3.56974 27 4.31719 27 5.81209 27C7.30698 27 8.05526 27 8.64486 26.7609C9.43099 26.4421 10.055 25.8301 10.3806 25.0604C10.6248 24.4832 10.625 23.7514 10.625 22.2879V20.7173C10.625 18.9826 12.0614 17.5763 13.8333 17.5763C15.6052 17.5763 17.0417 18.9826 17.0417 20.7173V22.2879C17.0417 23.7514 17.0417 24.4832 17.2859 25.0604C17.6115 25.8301 18.2357 26.4421 19.0218 26.7609C19.6114 27 20.3589 27 21.8538 27C23.3486 27 24.0969 27 24.6865 26.7609C25.4727 26.4421 26.0967 25.8299 26.4223 25.0603C26.6665 24.483 26.6667 23.7515 26.6667 22.288Z" fill="black" stroke="black" stroke-width="2" stroke-linecap="round" stroke-linejoin="round"/>
</svg>
