<svg width="9" height="12" viewBox="0 0 9 12" fill="none" xmlns="http://www.w3.org/2000/svg">
<path d="M0 4.38866C0 7.46441 2.72861 10.0079 3.93636 10.9831C4.10921 11.1227 4.19667 11.1933 4.32562 11.2291C4.42604 11.257 4.57382 11.257 4.67424 11.2291C4.80344 11.1932 4.89028 11.1233 5.06378 10.9832C6.27154 10.008 9 7.46469 9 4.38894C9 3.22496 8.52592 2.10851 7.682 1.28545C6.83808 0.46239 5.69356 0 4.50008 0C3.3066 0 2.16195 0.46246 1.31803 1.28552C0.474108 2.10858 0 3.22468 0 4.38866Z" fill="#A3A3A3"/>
<circle cx="4.5" cy="3.75" r="1.5" fill="white"/>
</svg>
