<svg width="17" height="17" viewBox="0 0 17 17" fill="none" xmlns="http://www.w3.org/2000/svg">
<path d="M6.128 8.696C6.23531 9.16074 5.72547 9.51396 5.32886 9.26603L3.9763 8.42084L2.28735 11.1236C1.84628 11.8294 2.35608 12.75 3.18789 12.75H4.91405C5.13409 12.75 5.31249 12.9284 5.31249 13.1484V14.4766C5.31249 14.6966 5.13409 14.875 4.91405 14.875H3.19131C0.689984 14.875 -0.836298 12.1175 0.488308 9.99812L2.17576 7.29579L0.82356 6.45084C0.422433 6.20026 0.525861 5.58886 0.985558 5.48271L4.64577 4.63769C4.93169 4.57168 5.2169 4.74995 5.28291 5.03579L6.128 8.696ZM9.40053 2.62266L10.7715 4.81659L9.41876 5.66184C9.01863 5.91179 9.11993 6.52355 9.58076 6.62997L13.241 7.47499C13.5289 7.54136 13.8126 7.36084 13.8781 7.07688L14.7231 3.41668C14.8293 2.95702 14.325 2.59593 13.924 2.84665L12.5731 3.6908L11.203 1.49668C9.95718 -0.496601 7.04566 -0.501183 5.79699 1.49668L5.20056 2.4518C5.08402 2.6384 5.1408 2.88413 5.3274 3.00074L6.45362 3.70448C6.64022 3.82109 6.88606 3.76435 7.00267 3.57775L7.59903 2.62339C8.02111 1.94801 8.99266 1.97009 9.40053 2.62266ZM16.5115 9.99812L15.5979 8.53503C15.4814 8.34833 15.2355 8.29152 15.0488 8.40816L13.9245 9.1107C13.7379 9.22731 13.6811 9.47311 13.7978 9.65975L14.713 11.1244C15.1531 11.8287 14.6447 12.75 13.812 12.75H10.625V11.1569C10.625 10.685 10.0525 10.4469 9.71812 10.7813L7.06187 13.4369C6.85438 13.6443 6.85438 13.9807 7.06187 14.1882L9.71812 16.8441C10.0502 17.1762 10.625 16.9435 10.625 16.4684V14.875H13.8085C16.3078 14.875 17.8372 12.1192 16.5115 9.99812Z" fill="#4ECB71"/>
</svg>
