<svg width="25" height="15" viewBox="0 0 25 15" fill="none" xmlns="http://www.w3.org/2000/svg">
<path d="M15.1603 11.0455H23.8009M1.58203 11.0455H4.0508M4.0508 11.0455C4.0508 12.6772 5.43243 14 7.13676 14C8.84109 14 10.2227 12.6772 10.2227 11.0455C10.2227 9.4137 8.84109 8.09091 7.13676 8.09091C5.43243 8.09091 4.0508 9.4137 4.0508 11.0455ZM22.5666 3.95455H23.8009M1.58203 3.95455H10.2227M18.2462 6.90909C16.5419 6.90909 15.1603 5.5863 15.1603 3.95455C15.1603 2.32279 16.5419 1 18.2462 1C19.9505 1 21.3322 2.32279 21.3322 3.95455C21.3322 5.5863 19.9505 6.90909 18.2462 6.90909Z" stroke="#D7D7D7" stroke-width="2" stroke-linecap="round" stroke-linejoin="round"/>
</svg>
