<svg width="23" height="21" viewBox="0 0 23 21" fill="none" xmlns="http://www.w3.org/2000/svg">
<path d="M8 5.75C8 7.71751 9.567 9.3125 11.5 9.3125C13.433 9.3125 15 7.71751 15 5.75M1 16.2002V4.80023C1 3.47011 1 2.80455 1.25432 2.29651C1.47802 1.84962 1.83472 1.48656 2.27376 1.25886C2.77289 1 3.42677 1 4.73356 1H18.2669C19.5737 1 20.2262 1 20.7253 1.25886C21.1643 1.48656 21.5222 1.84962 21.7459 2.29651C22 2.80405 22 3.46881 22 4.79633V16.2042C22 17.5318 22 18.1956 21.7459 18.7031C21.5222 19.15 21.1643 19.5137 20.7253 19.7414C20.2267 20 19.5745 20 18.2703 20H4.72973C3.42549 20 2.7724 20 2.27376 19.7414C1.83472 19.5137 1.47802 19.15 1.25432 18.7031C1 18.1951 1 17.5304 1 16.2002Z" stroke="black" stroke-width="2" stroke-linecap="round" stroke-linejoin="round"/>
</svg>
