<svg width="19" height="17" viewBox="0 0 19 17" fill="none" xmlns="http://www.w3.org/2000/svg">
<path d="M1.79119 7.4222C1.53717 7.20323 1.67515 6.80738 2.01873 6.76941L6.88711 6.23115C7.02714 6.21567 7.14877 6.1337 7.20783 6.01435L9.26124 1.86469C9.40616 1.57183 9.8528 1.57178 9.99772 1.86463L12.0511 6.01426C12.1102 6.13362 12.231 6.2158 12.3711 6.23128L17.2397 6.76941C17.5833 6.80738 17.7209 7.20335 17.4669 7.42232L13.8679 10.5252C13.7644 10.6145 13.7183 10.7473 13.7458 10.8762L14.701 15.3584C14.7684 15.6747 14.4072 15.9198 14.1053 15.7623L9.82748 13.5296C9.70444 13.4654 9.55495 13.4657 9.4319 13.5299L5.15362 15.7617C4.85171 15.9192 4.48989 15.6747 4.55732 15.3584L5.51261 10.8765C5.54009 10.7476 5.49412 10.6144 5.39059 10.5252L1.79119 7.4222Z" fill="#FFB800" stroke="#FFB800" stroke-width="2" stroke-linecap="round" stroke-linejoin="round"/>
</svg>
