<svg width="21" height="21" viewBox="0 0 21 21" fill="none" xmlns="http://www.w3.org/2000/svg">
<path d="M17.8046 15.9452L17.9396 14.2573C17.9736 13.8321 18.1412 13.4287 18.4179 13.104L19.5158 11.8143C20.1615 11.0566 20.1614 9.9425 19.5157 9.18478L18.4178 7.8958C18.1411 7.5711 17.9732 7.16733 17.9393 6.74207L17.8051 5.05441C17.7259 4.06202 16.9377 3.27375 15.9453 3.19456L14.2574 3.05952C13.8321 3.02559 13.429 2.85933 13.1043 2.58262L11.8154 1.48429C11.0577 0.838569 9.94258 0.838569 9.18487 1.48429L7.8959 2.58214C7.5712 2.85885 7.16743 3.02651 6.74218 3.06045L5.05421 3.19515M17.8056 15.946C17.7264 16.9383 16.9384 17.7264 15.946 17.8056M15.9454 17.8046L14.2575 17.9393C13.8322 17.9732 13.4287 18.1401 13.104 18.4168L11.8154 19.5157C11.0577 20.1614 9.94247 20.1615 9.18476 19.5158L7.89622 18.4179C7.57152 18.1412 7.16797 17.9735 6.74272 17.9396L5.05421 17.8046M5.05522 17.8056C4.06284 17.7264 3.27482 16.9383 3.19562 15.946L3.06058 14.2574C3.02665 13.8322 2.85898 13.4286 2.58228 13.1039L1.48444 11.8154C0.838722 11.0577 0.838419 9.94239 1.48414 9.18467L2.58296 7.89612C2.85967 7.57142 3.02572 7.16787 3.05966 6.74261L3.19469 5.05409M3.19562 5.0551C3.27482 4.06272 4.06284 3.27468 5.05522 3.19549" stroke="#64DC70" stroke-linecap="round" stroke-linejoin="round"/>
<path d="M15.25 13.35L11.7789 9.96559C11.7166 9.9048 11.6851 9.87434 11.6572 9.85036C11.2063 9.46295 10.5246 9.46295 10.0737 9.85036C10.0458 9.87435 10.014 9.90477 9.95166 9.96559C9.88929 10.0264 9.85809 10.0568 9.83018 10.0808C9.37932 10.4682 8.69727 10.4682 8.24641 10.0808C8.2185 10.0568 8.18731 10.0264 8.12493 9.96559L5.75 7.64996M15.25 13.35L15.2497 9.92996M15.25 13.35H11.6873" stroke="#64DC70" stroke-linecap="round" stroke-linejoin="round"/>
</svg>
