<svg width="10" height="12" viewBox="0 0 10 12" fill="none" xmlns="http://www.w3.org/2000/svg">
<path d="M4.96759 10.9999H5.03241M4.96759 10.9999C4.97838 11 4.98919 11 5 11C5.01081 11 5.02162 11 5.03241 10.9999M4.96759 10.9999C2.77337 10.9819 1 9.14509 1 6.88214V4.48398C1 4.18411 1.23603 3.94114 1.52734 3.94114H8.4724C8.76371 3.94114 9 4.22949 9 4.52937V6.88214C9 9.14509 7.22663 10.9819 5.03241 10.9999M7.28571 1L6.71429 2.17646M5.57143 1L5 2.17646M3.85714 1L3.28571 2.17646" stroke="#272727" stroke-linecap="round" stroke-linejoin="round"/>
</svg>
